<svg width="152" height="48" viewBox="0 0 152 48" fill="none" xmlns="http://www.w3.org/2000/svg">
<path d="M20.84 26C20.68 26 20.6 25.92 20.6 25.76V15.04C20.6 14.88 20.68 14.8 20.84 14.8H21.88C22.04 14.8 22.12 14.88 22.12 15.04V24.56H27.72V15.04C27.72 14.88 27.8 14.8 27.96 14.8H29C29.16 14.8 29.24 14.88 29.24 15.04V24.8L30.84 26.56C30.8827 26.6027 30.904 26.656 30.904 26.72C30.904 26.784 30.8827 26.8373 30.84 26.88L30.04 27.6C29.9227 27.696 29.816 27.696 29.72 27.6L28.28 26H20.84ZM37.6625 21.2V20.16C37.6625 19.7973 37.5505 19.5093 37.3265 19.296C37.1132 19.072 36.8252 18.96 36.4625 18.96H34.5425C34.1798 18.96 33.8865 19.072 33.6625 19.296C33.4492 19.5093 33.3425 19.7973 33.3425 20.16V21.2H37.6625ZM33.3425 22.48V23.68C33.3425 24.0427 33.4492 24.336 33.6625 24.56C33.8865 24.7733 34.1798 24.88 34.5425 24.88H36.4625C36.8252 24.88 37.1132 24.7733 37.3265 24.56C37.5505 24.336 37.6625 24.0427 37.6625 23.68V23.6C37.6625 23.44 37.7425 23.36 37.9025 23.36H38.7825C38.9425 23.36 39.0225 23.44 39.0225 23.6V23.68C39.0225 24.48 38.8038 25.0933 38.3665 25.52C37.9398 25.9467 37.3052 26.16 36.4625 26.16H34.5425C33.6998 26.16 33.0598 25.9467 32.6225 25.52C32.1958 25.0933 31.9825 24.48 31.9825 23.68V20.16C31.9825 19.36 32.1958 18.7467 32.6225 18.32C33.0598 17.8933 33.6998 17.68 34.5425 17.68H36.4625C37.3052 17.68 37.9398 17.8933 38.3665 18.32C38.8038 18.7467 39.0225 19.36 39.0225 20.16V22.24C39.0225 22.4 38.9425 22.48 38.7825 22.48H33.3425ZM42.5838 22.48V25.76C42.5838 25.92 42.5038 26 42.3438 26H41.4638C41.3038 26 41.2238 25.92 41.2238 25.76V18.08C41.2238 17.92 41.3038 17.84 41.4638 17.84H42.3438C42.5038 17.84 42.5838 17.92 42.5838 18.08V21.28H46.6638V18.08C46.6638 17.92 46.7438 17.84 46.9038 17.84H47.7838C47.9438 17.84 48.0238 17.92 48.0238 18.08V25.76C48.0238 25.92 47.9438 26 47.7838 26H46.9038C46.7438 26 46.6638 25.92 46.6638 25.76V22.48H42.5838ZM54.2231 24.72C54.5431 24.72 54.7938 24.6293 54.9751 24.448C55.1671 24.256 55.2631 24 55.2631 23.68V22.88C55.2631 22.56 55.1671 22.3093 54.9751 22.128C54.7938 21.936 54.5431 21.84 54.2231 21.84H51.7431V24.72H54.2231ZM50.6231 26C50.4631 26 50.3831 25.92 50.3831 25.76V18.08C50.3831 17.92 50.4631 17.84 50.6231 17.84H51.5031C51.6631 17.84 51.7431 17.92 51.7431 18.08V20.56H54.2231C55.8231 20.56 56.6231 21.3333 56.6231 22.88V23.68C56.6231 25.2267 55.8231 26 54.2231 26H50.6231ZM59.3431 25.76C59.3431 25.92 59.2631 26 59.1031 26H58.2231C58.0631 26 57.9831 25.92 57.9831 25.76V18.08C57.9831 17.92 58.0631 17.84 58.2231 17.84H59.1031C59.2631 17.84 59.3431 17.92 59.3431 18.08V25.76ZM66.0619 22.48V25.76C66.0619 25.92 65.9819 26 65.8219 26H64.9419C64.7819 26 64.7019 25.92 64.7019 25.76V18.08C64.7019 17.92 64.7819 17.84 64.9419 17.84H65.8219C65.9819 17.84 66.0619 17.92 66.0619 18.08V21.28H70.1419V18.08C70.1419 17.92 70.2219 17.84 70.3819 17.84H71.2619C71.4219 17.84 71.5019 17.92 71.5019 18.08V25.76C71.5019 25.92 71.4219 26 71.2619 26H70.3819C70.2219 26 70.1419 25.92 70.1419 25.76V22.48H66.0619ZM73.5412 23.52C73.5412 21.9733 74.3412 21.2 75.9412 21.2H78.9012V20.16C78.9012 19.7973 78.7892 19.5093 78.5652 19.296C78.3519 19.072 78.0639 18.96 77.7012 18.96H76.5812C76.2186 18.96 75.9252 19.072 75.7012 19.296C75.4879 19.5093 75.3812 19.7973 75.3812 20.16C75.3812 20.32 75.3012 20.4 75.1412 20.4H74.2612C74.1012 20.4 74.0212 20.32 74.0212 20.16C74.0212 19.36 74.2346 18.7467 74.6612 18.32C75.0986 17.8933 75.7386 17.68 76.5812 17.68H77.7012C78.5439 17.68 79.1786 17.8933 79.6052 18.32C80.0426 18.7467 80.2612 19.36 80.2612 20.16V25.76C80.2612 25.92 80.1812 26 80.0212 26H79.1412C78.9812 26 78.9012 25.92 78.9012 25.76V25.2H78.8212C78.7359 25.3813 78.6132 25.5413 78.4532 25.68C78.3146 25.7973 78.1332 25.904 77.9092 26C77.6852 26.1067 77.4026 26.16 77.0612 26.16H75.9412C74.3412 26.16 73.5412 25.3867 73.5412 23.84V23.52ZM74.9012 23.84C74.9012 24.16 74.9919 24.416 75.1732 24.608C75.3652 24.7893 75.6212 24.88 75.9412 24.88H77.2212C77.7012 24.88 78.1012 24.72 78.4212 24.4C78.7412 24.08 78.9012 23.68 78.9012 23.2V22.48H75.9412C75.6212 22.48 75.3652 22.576 75.1732 22.768C74.9919 22.9493 74.9012 23.2 74.9012 23.52V23.84ZM90.6895 18.08C90.7215 17.9947 90.7642 17.936 90.8175 17.904C90.8815 17.8613 90.9722 17.84 91.0895 17.84H92.0495C92.2202 17.84 92.2735 17.92 92.2095 18.08L89.0895 26C88.8655 26.5653 88.6468 27.04 88.4335 27.424C88.2202 27.808 87.9908 28.1173 87.7455 28.352C87.5002 28.5973 87.2335 28.7733 86.9455 28.88C86.6575 28.9867 86.3322 29.04 85.9695 29.04H85.6495C85.4895 29.04 85.4095 28.96 85.4095 28.8V28C85.4095 27.84 85.4895 27.76 85.6495 27.76H85.9695C86.3748 27.76 86.7055 27.6267 86.9615 27.36C87.2282 27.0933 87.4842 26.64 87.7295 26L84.6095 18.08C84.5455 17.92 84.5988 17.84 84.7695 17.84H85.7295C85.8468 17.84 85.9322 17.8613 85.9855 17.904C86.0495 17.936 86.0975 17.9947 86.1295 18.08L88.3695 24.08H88.4495L90.6895 18.08ZM94.7581 23.68C94.7581 24.0427 94.8648 24.336 95.0781 24.56C95.3021 24.7733 95.5955 24.88 95.9581 24.88H97.7981C98.1608 24.88 98.4488 24.7733 98.6621 24.56C98.8861 24.336 98.9981 24.0427 98.9981 23.68V23.28C98.9981 23.12 99.0781 23.04 99.2381 23.04H100.118C100.278 23.04 100.358 23.12 100.358 23.28V23.68C100.358 24.48 100.139 25.0933 99.7021 25.52C99.2755 25.9467 98.6408 26.16 97.7981 26.16H95.9581C95.1155 26.16 94.4755 25.9467 94.0381 25.52C93.6115 25.0933 93.3981 24.48 93.3981 23.68V20.16C93.3981 19.36 93.6115 18.7467 94.0381 18.32C94.4755 17.8933 95.1155 17.68 95.9581 17.68H97.7981C98.6408 17.68 99.2755 17.8933 99.7021 18.32C100.139 18.7467 100.358 19.36 100.358 20.16V20.56C100.358 20.72 100.278 20.8 100.118 20.8H99.2381C99.0781 20.8 98.9981 20.72 98.9981 20.56V20.16C98.9981 19.7973 98.8861 19.5093 98.6621 19.296C98.4488 19.072 98.1608 18.96 97.7981 18.96H95.9581C95.5955 18.96 95.3021 19.072 95.0781 19.296C94.8648 19.5093 94.7581 19.7973 94.7581 20.16V23.68ZM104.085 23.84C103.925 24.64 103.653 25.2267 103.269 25.6C102.885 25.9733 102.33 26.16 101.605 26.16H101.365C101.205 26.16 101.125 26.08 101.125 25.92V25.12C101.125 24.96 101.205 24.88 101.365 24.88H101.605C101.882 24.88 102.117 24.7893 102.309 24.608C102.512 24.4267 102.65 24.1707 102.725 23.84L103.925 18.08C103.957 17.92 104.09 17.84 104.325 17.84H108.805C108.965 17.84 109.045 17.92 109.045 18.08V25.76C109.045 25.92 108.965 26 108.805 26H107.925C107.765 26 107.685 25.92 107.685 25.76V19.12H105.045L104.085 23.84ZM116.48 18.08C116.512 17.9947 116.555 17.936 116.608 17.904C116.672 17.8613 116.763 17.84 116.88 17.84H117.84C118.011 17.84 118.064 17.92 118 18.08L114.88 26C114.656 26.5653 114.437 27.04 114.224 27.424C114.011 27.808 113.781 28.1173 113.536 28.352C113.291 28.5973 113.024 28.7733 112.736 28.88C112.448 28.9867 112.123 29.04 111.76 29.04H111.44C111.28 29.04 111.2 28.96 111.2 28.8V28C111.2 27.84 111.28 27.76 111.44 27.76H111.76C112.165 27.76 112.496 27.6267 112.752 27.36C113.019 27.0933 113.275 26.64 113.52 26L110.4 18.08C110.336 17.92 110.389 17.84 110.56 17.84H111.52C111.637 17.84 111.723 17.8613 111.776 17.904C111.84 17.936 111.888 17.9947 111.92 18.08L114.16 24.08H114.24L116.48 18.08ZM119.589 26C119.429 26 119.349 25.92 119.349 25.76V18.08C119.349 17.92 119.429 17.84 119.589 17.84H124.869C125.029 17.84 125.109 17.92 125.109 18.08V18.88C125.109 19.04 125.029 19.12 124.869 19.12H120.709V25.76C120.709 25.92 120.629 26 120.469 26H119.589ZM132.916 17.84C133.076 17.84 133.156 17.92 133.156 18.08V25.76C133.156 25.92 133.076 26 132.916 26H132.036C131.876 26 131.796 25.92 131.796 25.76V19.92H131.716L127.876 25.76C127.822 25.8453 127.769 25.9093 127.716 25.952C127.662 25.984 127.556 26 127.396 26H126.436C126.276 26 126.196 25.92 126.196 25.76V18.08C126.196 17.92 126.276 17.84 126.436 17.84H127.316C127.476 17.84 127.556 17.92 127.556 18.08V23.92H127.636L131.476 18.08C131.529 17.9947 131.582 17.936 131.636 17.904C131.689 17.8613 131.796 17.84 131.956 17.84H132.916Z" fill="#7E7E82"/>
</svg>
