<svg width="191" height="36" viewBox="0 0 191 36" fill="none" xmlns="http://www.w3.org/2000/svg">
<path d="M18.44 16.44C18.44 14.5733 19.4 13.64 21.32 13.64H25C26.92 13.64 27.88 14.5733 27.88 16.44V17.08C27.88 17.24 27.8 17.32 27.64 17.32H26.6C26.44 17.32 26.36 17.24 26.36 17.08V16.44C26.36 15.5333 25.9067 15.08 25 15.08H21.32C20.4133 15.08 19.96 15.5333 19.96 16.44V22.36C19.96 23.2667 20.4133 23.72 21.32 23.72H25C25.9067 23.72 26.36 23.2667 26.36 22.36V21.72C26.36 21.56 26.44 21.48 26.6 21.48H27.64C27.8 21.48 27.88 21.56 27.88 21.72V22.36C27.88 24.2267 26.92 25.16 25 25.16H21.32C19.4 25.16 18.44 24.2267 18.44 22.36V16.44ZM35.76 25C35.6 25 35.52 24.92 35.52 24.76V18.12H31.44V24.76C31.44 24.92 31.36 25 31.2 25H30.32C30.16 25 30.08 24.92 30.08 24.76V17.08C30.08 16.92 30.16 16.84 30.32 16.84H36.64C36.8 16.84 36.88 16.92 36.88 17.08V24.76C36.88 24.92 36.8 25 36.64 25H35.76ZM44.7594 20.2V19.16C44.7594 18.7973 44.6474 18.5093 44.4234 18.296C44.21 18.072 43.922 17.96 43.5594 17.96H41.6394C41.2767 17.96 40.9834 18.072 40.7594 18.296C40.546 18.5093 40.4394 18.7973 40.4394 19.16V20.2H44.7594ZM40.4394 21.48V22.68C40.4394 23.0427 40.546 23.336 40.7594 23.56C40.9834 23.7733 41.2767 23.88 41.6394 23.88H43.5594C43.922 23.88 44.21 23.7733 44.4234 23.56C44.6474 23.336 44.7594 23.0427 44.7594 22.68V22.6C44.7594 22.44 44.8394 22.36 44.9994 22.36H45.8794C46.0394 22.36 46.1194 22.44 46.1194 22.6V22.68C46.1194 23.48 45.9007 24.0933 45.4634 24.52C45.0367 24.9467 44.402 25.16 43.5594 25.16H41.6394C40.7967 25.16 40.1567 24.9467 39.7194 24.52C39.2927 24.0933 39.0794 23.48 39.0794 22.68V19.16C39.0794 18.36 39.2927 17.7467 39.7194 17.32C40.1567 16.8933 40.7967 16.68 41.6394 16.68H43.5594C44.402 16.68 45.0367 16.8933 45.4634 17.32C45.9007 17.7467 46.1194 18.36 46.1194 19.16V21.24C46.1194 21.4 46.0394 21.48 45.8794 21.48H40.4394ZM48.5606 25C48.4006 25 48.3206 24.92 48.3206 24.76V17.08C48.3206 16.92 48.4006 16.84 48.5606 16.84H49.4406C49.6006 16.84 49.6806 16.92 49.6806 17.08V23.72H53.6006V17.08C53.6006 16.92 53.6806 16.84 53.8406 16.84H54.7206C54.8806 16.84 54.9606 16.92 54.9606 17.08V23.96L56.4006 25.56C56.4433 25.6027 56.4646 25.656 56.4646 25.72C56.4646 25.784 56.4433 25.8373 56.4006 25.88L55.6806 26.52C55.5633 26.616 55.4566 26.616 55.3606 26.52L54.0006 25H48.5606ZM64.2625 16.84C64.4225 16.84 64.5025 16.92 64.5025 17.08V24.76C64.5025 24.92 64.4225 25 64.2625 25H63.3825C63.2225 25 63.1425 24.92 63.1425 24.76V18.92H63.0625L59.2225 24.76C59.1692 24.8453 59.1158 24.9093 59.0625 24.952C59.0092 24.984 58.9025 25 58.7425 25H57.7825C57.6225 25 57.5425 24.92 57.5425 24.76V17.08C57.5425 16.92 57.6225 16.84 57.7825 16.84H58.6625C58.8225 16.84 58.9025 16.92 58.9025 17.08V22.92H58.9825L62.8225 17.08C62.8758 16.9947 62.9292 16.936 62.9825 16.904C63.0358 16.8613 63.1425 16.84 63.3025 16.84H64.2625ZM66.5381 22.52C66.5381 20.9733 67.3381 20.2 68.9381 20.2H71.8981V19.16C71.8981 18.7973 71.7861 18.5093 71.5621 18.296C71.3488 18.072 71.0608 17.96 70.6981 17.96H69.5781C69.2155 17.96 68.9221 18.072 68.6981 18.296C68.4848 18.5093 68.3781 18.7973 68.3781 19.16C68.3781 19.32 68.2981 19.4 68.1381 19.4H67.2581C67.0981 19.4 67.0181 19.32 67.0181 19.16C67.0181 18.36 67.2315 17.7467 67.6581 17.32C68.0955 16.8933 68.7355 16.68 69.5781 16.68H70.6981C71.5408 16.68 72.1755 16.8933 72.6021 17.32C73.0395 17.7467 73.2581 18.36 73.2581 19.16V24.76C73.2581 24.92 73.1781 25 73.0181 25H72.1381C71.9781 25 71.8981 24.92 71.8981 24.76V24.2H71.8181C71.7328 24.3813 71.6101 24.5413 71.4501 24.68C71.3115 24.7973 71.1301 24.904 70.9061 25C70.6821 25.1067 70.3995 25.16 70.0581 25.16H68.9381C67.3381 25.16 66.5381 24.3867 66.5381 22.84V22.52ZM67.8981 22.84C67.8981 23.16 67.9888 23.416 68.1701 23.608C68.3621 23.7893 68.6181 23.88 68.9381 23.88H70.2181C70.6981 23.88 71.0981 23.72 71.4181 23.4C71.7381 23.08 71.8981 22.68 71.8981 22.2V21.48H68.9381C68.6181 21.48 68.3621 21.576 68.1701 21.768C67.9888 21.9493 67.8981 22.2 67.8981 22.52V22.84ZM77.2912 22.84C77.1312 23.64 76.8592 24.2267 76.4752 24.6C76.0912 24.9733 75.5366 25.16 74.8112 25.16H74.5712C74.4112 25.16 74.3312 25.08 74.3312 24.92V24.12C74.3312 23.96 74.4112 23.88 74.5712 23.88H74.8112C75.0886 23.88 75.3232 23.7893 75.5152 23.608C75.7179 23.4267 75.8566 23.1707 75.9312 22.84L77.1312 17.08C77.1632 16.92 77.2966 16.84 77.5312 16.84H82.0112C82.1712 16.84 82.2512 16.92 82.2512 17.08V24.76C82.2512 24.92 82.1712 25 82.0112 25H81.1312C80.9712 25 80.8912 24.92 80.8912 24.76V18.12H78.2512L77.2912 22.84ZM88.7744 23.72C89.0944 23.72 89.345 23.6293 89.5264 23.448C89.7184 23.256 89.8144 23 89.8144 22.68V21.88C89.8144 21.56 89.7184 21.3093 89.5264 21.128C89.345 20.936 89.0944 20.84 88.7744 20.84H85.9744V23.72H88.7744ZM84.8544 25C84.6944 25 84.6144 24.92 84.6144 24.76V17.08C84.6144 16.92 84.6944 16.84 84.8544 16.84H85.7344C85.8944 16.84 85.9744 16.92 85.9744 17.08V19.56H88.7744C90.3744 19.56 91.1744 20.3333 91.1744 21.88V22.68C91.1744 24.2267 90.3744 25 88.7744 25H84.8544ZM94.5713 21.48V24.76C94.5713 24.92 94.4913 25 94.3313 25H93.4513C93.2913 25 93.2113 24.92 93.2113 24.76V17.08C93.2113 16.92 93.2913 16.84 93.4513 16.84H94.3313C94.4913 16.84 94.5713 16.92 94.5713 17.08V20.28H98.6513V17.08C98.6513 16.92 98.7313 16.84 98.8913 16.84H99.7713C99.9313 16.84 100.011 16.92 100.011 17.08V24.76C100.011 24.92 99.9313 25 99.7713 25H98.8913C98.7313 25 98.6513 24.92 98.6513 24.76V21.48H94.5713ZM106.211 23.72C106.531 23.72 106.781 23.6293 106.963 23.448C107.155 23.256 107.251 23 107.251 22.68V21.88C107.251 21.56 107.155 21.3093 106.963 21.128C106.781 20.936 106.531 20.84 106.211 20.84H103.731V23.72H106.211ZM102.611 25C102.451 25 102.371 24.92 102.371 24.76V17.08C102.371 16.92 102.451 16.84 102.611 16.84H103.491C103.651 16.84 103.731 16.92 103.731 17.08V19.56H106.211C107.811 19.56 108.611 20.3333 108.611 21.88V22.68C108.611 24.2267 107.811 25 106.211 25H102.611ZM111.331 24.76C111.331 24.92 111.251 25 111.091 25H110.211C110.051 25 109.971 24.92 109.971 24.76V17.08C109.971 16.92 110.051 16.84 110.211 16.84H111.091C111.251 16.84 111.331 16.92 111.331 17.08V24.76ZM119.206 20.2V19.16C119.206 18.7973 119.094 18.5093 118.87 18.296C118.657 18.072 118.369 17.96 118.006 17.96H116.086C115.724 17.96 115.43 18.072 115.206 18.296C114.993 18.5093 114.886 18.7973 114.886 19.16V20.2H119.206ZM114.886 21.48V22.68C114.886 23.0427 114.993 23.336 115.206 23.56C115.43 23.7733 115.724 23.88 116.086 23.88H118.006C118.369 23.88 118.657 23.7733 118.87 23.56C119.094 23.336 119.206 23.0427 119.206 22.68V22.6C119.206 22.44 119.286 22.36 119.446 22.36H120.326C120.486 22.36 120.566 22.44 120.566 22.6V22.68C120.566 23.48 120.348 24.0933 119.91 24.52C119.484 24.9467 118.849 25.16 118.006 25.16H116.086C115.244 25.16 114.604 24.9467 114.166 24.52C113.74 24.0933 113.526 23.48 113.526 22.68V19.16C113.526 18.36 113.74 17.7467 114.166 17.32C114.604 16.8933 115.244 16.68 116.086 16.68H118.006C118.849 16.68 119.484 16.8933 119.91 17.32C120.348 17.7467 120.566 18.36 120.566 19.16V21.24C120.566 21.4 120.486 21.48 120.326 21.48H114.886ZM126.011 25C125.851 25 125.771 24.92 125.771 24.76V17.08C125.771 16.92 125.851 16.84 126.011 16.84H126.891C127.051 16.84 127.131 16.92 127.131 17.08V23.72H131.051V17.08C131.051 16.92 131.131 16.84 131.291 16.84H132.171C132.331 16.84 132.411 16.92 132.411 17.08V23.96L133.851 25.56C133.893 25.6027 133.915 25.656 133.915 25.72C133.915 25.784 133.893 25.8373 133.851 25.88L133.131 26.52C133.013 26.616 132.907 26.616 132.811 26.52L131.451 25H126.011ZM140.513 20.2V19.16C140.513 18.7973 140.401 18.5093 140.177 18.296C139.963 18.072 139.675 17.96 139.313 17.96H137.393C137.03 17.96 136.737 18.072 136.513 18.296C136.299 18.5093 136.193 18.7973 136.193 19.16V20.2H140.513ZM136.193 21.48V22.68C136.193 23.0427 136.299 23.336 136.513 23.56C136.737 23.7733 137.03 23.88 137.393 23.88H139.313C139.675 23.88 139.963 23.7733 140.177 23.56C140.401 23.336 140.513 23.0427 140.513 22.68V22.6C140.513 22.44 140.593 22.36 140.753 22.36H141.633C141.793 22.36 141.873 22.44 141.873 22.6V22.68C141.873 23.48 141.654 24.0933 141.217 24.52C140.79 24.9467 140.155 25.16 139.313 25.16H137.393C136.55 25.16 135.91 24.9467 135.473 24.52C135.046 24.0933 134.833 23.48 134.833 22.68V19.16C134.833 18.36 135.046 17.7467 135.473 17.32C135.91 16.8933 136.55 16.68 137.393 16.68H139.313C140.155 16.68 140.79 16.8933 141.217 17.32C141.654 17.7467 141.873 18.36 141.873 19.16V21.24C141.873 21.4 141.793 21.48 141.633 21.48H136.193ZM145.434 21.48V24.76C145.434 24.92 145.354 25 145.194 25H144.314C144.154 25 144.074 24.92 144.074 24.76V17.08C144.074 16.92 144.154 16.84 144.314 16.84H145.194C145.354 16.84 145.434 16.92 145.434 17.08V20.28H149.514V17.08C149.514 16.92 149.594 16.84 149.754 16.84H150.634C150.794 16.84 150.874 16.92 150.874 17.08V24.76C150.874 24.92 150.794 25 150.634 25H149.754C149.594 25 149.514 24.92 149.514 24.76V21.48H145.434ZM157.073 23.72C157.393 23.72 157.644 23.6293 157.825 23.448C158.017 23.256 158.113 23 158.113 22.68V21.88C158.113 21.56 158.017 21.3093 157.825 21.128C157.644 20.936 157.393 20.84 157.073 20.84H154.593V23.72H157.073ZM153.473 25C153.313 25 153.233 24.92 153.233 24.76V17.08C153.233 16.92 153.313 16.84 153.473 16.84H154.353C154.513 16.84 154.593 16.92 154.593 17.08V19.56H157.073C158.673 19.56 159.473 20.3333 159.473 21.88V22.68C159.473 24.2267 158.673 25 157.073 25H153.473ZM162.193 24.76C162.193 24.92 162.113 25 161.953 25H161.073C160.913 25 160.833 24.92 160.833 24.76V17.08C160.833 16.92 160.913 16.84 161.073 16.84H161.953C162.113 16.84 162.193 16.92 162.193 17.08V24.76Z" fill="#7E7E82"/>
</svg>
