<svg width="254" height="40" viewBox="0 0 254 40" fill="none" xmlns="http://www.w3.org/2000/svg">
<path d="M26.68 21.04C27.5867 21.04 28.04 20.5867 28.04 19.68V17.6C28.04 16.6933 27.5867 16.24 26.68 16.24H22.12V21.04H26.68ZM22.12 22.48V25.76C22.12 25.92 22.04 26 21.88 26H20.84C20.68 26 20.6 25.92 20.6 25.76V15.04C20.6 14.88 20.68 14.8 20.84 14.8H26.68C28.6 14.8 29.56 15.7333 29.56 17.6V19.68C29.56 21.5467 28.6 22.48 26.68 22.48H22.12ZM37.2875 21.2V20.16C37.2875 19.7973 37.1755 19.5093 36.9515 19.296C36.7382 19.072 36.4502 18.96 36.0875 18.96H34.1675C33.8048 18.96 33.5115 19.072 33.2875 19.296C33.0742 19.5093 32.9675 19.7973 32.9675 20.16V21.2H37.2875ZM32.9675 22.48V23.68C32.9675 24.0427 33.0742 24.336 33.2875 24.56C33.5115 24.7733 33.8048 24.88 34.1675 24.88H36.0875C36.4502 24.88 36.7382 24.7733 36.9515 24.56C37.1755 24.336 37.2875 24.0427 37.2875 23.68V23.6C37.2875 23.44 37.3675 23.36 37.5275 23.36H38.4075C38.5675 23.36 38.6475 23.44 38.6475 23.6V23.68C38.6475 24.48 38.4288 25.0933 37.9915 25.52C37.5648 25.9467 36.9302 26.16 36.0875 26.16H34.1675C33.3248 26.16 32.6848 25.9467 32.2475 25.52C31.8208 25.0933 31.6075 24.48 31.6075 23.68V20.16C31.6075 19.36 31.8208 18.7467 32.2475 18.32C32.6848 17.8933 33.3248 17.68 34.1675 17.68H36.0875C36.9302 17.68 37.5648 17.8933 37.9915 18.32C38.4288 18.7467 38.6475 19.36 38.6475 20.16V22.24C38.6475 22.4 38.5675 22.48 38.4075 22.48H32.9675ZM45.4888 24.24L48.3688 18.08C48.4114 17.9947 48.4594 17.936 48.5128 17.904C48.5768 17.8613 48.6888 17.84 48.8488 17.84H49.8088C49.9688 17.84 50.0488 17.92 50.0488 18.08V25.76C50.0488 25.92 49.9688 26 49.8088 26H48.9288C48.7688 26 48.6888 25.92 48.6888 25.76V20.48H48.6088L46.1288 25.76C46.0861 25.8453 46.0328 25.9093 45.9688 25.952C45.9154 25.984 45.8088 26 45.6488 26H45.2488C45.0888 26 44.9768 25.984 44.9128 25.952C44.8594 25.9093 44.8114 25.8453 44.7688 25.76L42.2888 20.48H42.2088V25.76C42.2088 25.92 42.1288 26 41.9688 26H41.0888C40.9288 26 40.8488 25.92 40.8488 25.76V18.08C40.8488 17.92 40.9288 17.84 41.0888 17.84H42.0488C42.2088 17.84 42.3154 17.8613 42.3688 17.904C42.4328 17.936 42.4861 17.9947 42.5288 18.08L45.4088 24.24H45.4888ZM58.0144 20.16C58.0144 19.7973 57.9024 19.5093 57.6784 19.296C57.465 19.072 57.177 18.96 56.8144 18.96H54.8144C54.4517 18.96 54.1584 19.072 53.9344 19.296C53.721 19.5093 53.6144 19.7973 53.6144 20.16V23.68C53.6144 24.0427 53.721 24.336 53.9344 24.56C54.1584 24.7733 54.4517 24.88 54.8144 24.88H56.8144C57.177 24.88 57.465 24.7733 57.6784 24.56C57.9024 24.336 58.0144 24.0427 58.0144 23.68V20.16ZM59.3744 23.68C59.3744 24.48 59.1557 25.0933 58.7184 25.52C58.2917 25.9467 57.657 26.16 56.8144 26.16H54.8144C53.9717 26.16 53.3317 25.9467 52.8944 25.52C52.4677 25.0933 52.2544 24.48 52.2544 23.68V20.16C52.2544 19.36 52.4677 18.7467 52.8944 18.32C53.3317 17.8933 53.9717 17.68 54.8144 17.68H56.8144C57.657 17.68 58.2917 17.8933 58.7184 18.32C59.1557 18.7467 59.3744 19.36 59.3744 20.16V23.68ZM62.9338 22.48V25.76C62.9338 25.92 62.8538 26 62.6938 26H61.8138C61.6538 26 61.5738 25.92 61.5738 25.76V18.08C61.5738 17.92 61.6538 17.84 61.8138 17.84H62.6938C62.8538 17.84 62.9338 17.92 62.9338 18.08V21.28H67.0138V18.08C67.0138 17.92 67.0938 17.84 67.2538 17.84H68.1338C68.2938 17.84 68.3738 17.92 68.3738 18.08V25.76C68.3738 25.92 68.2938 26 68.1338 26H67.2538C67.0938 26 67.0138 25.92 67.0138 25.76V22.48H62.9338ZM72.5731 26C72.4131 26 72.3331 25.92 72.3331 25.76V19.12H69.8531C69.6931 19.12 69.6131 19.04 69.6131 18.88V18.08C69.6131 17.92 69.6931 17.84 69.8531 17.84H76.1731C76.3331 17.84 76.4131 17.92 76.4131 18.08V18.88C76.4131 19.04 76.3331 19.12 76.1731 19.12H73.6931V25.76C73.6931 25.92 73.6131 26 73.4531 26H72.5731ZM84.3781 17.84C84.5381 17.84 84.6181 17.92 84.6181 18.08V25.76C84.6181 25.92 84.5381 26 84.3781 26H83.4981C83.3381 26 83.2581 25.92 83.2581 25.76V19.92H83.1781L79.3381 25.76C79.2848 25.8453 79.2315 25.9093 79.1781 25.952C79.1248 25.984 79.0181 26 78.8581 26H77.8981C77.7381 26 77.6581 25.92 77.6581 25.76V18.08C77.6581 17.92 77.7381 17.84 77.8981 17.84H78.7781C78.9381 17.84 79.0181 17.92 79.0181 18.08V23.92H79.0981L82.9381 18.08C82.9915 17.9947 83.0448 17.936 83.0981 17.904C83.1515 17.8613 83.2581 17.84 83.4181 17.84H84.3781ZM91.3737 24.72C91.7364 24.72 92.0244 24.6133 92.2377 24.4C92.4617 24.176 92.5737 23.8827 92.5737 23.52V20.16C92.5737 19.7973 92.4617 19.5093 92.2377 19.296C92.0244 19.072 91.7364 18.96 91.3737 18.96H90.0137C89.5337 18.96 89.1337 19.12 88.8137 19.44C88.4937 19.76 88.3337 20.16 88.3337 20.64V24.72H91.3737ZM88.3337 26V28.8C88.3337 28.96 88.2537 29.04 88.0937 29.04H87.2137C87.0537 29.04 86.9737 28.96 86.9737 28.8V18.08C86.9737 17.92 87.0537 17.84 87.2137 17.84H88.0937C88.2537 17.84 88.3337 17.92 88.3337 18.08V18.64H88.4137C88.4991 18.4587 88.6217 18.2987 88.7817 18.16C88.9204 18.0427 89.1017 17.936 89.3257 17.84C89.5497 17.7333 89.8324 17.68 90.1737 17.68H91.3737C92.2164 17.68 92.8511 17.8933 93.2777 18.32C93.7151 18.7467 93.9337 19.36 93.9337 20.16V23.52C93.9337 24.32 93.7151 24.9333 93.2777 25.36C92.8511 25.7867 92.2164 26 91.3737 26H88.3337ZM101.205 18.08C101.237 17.9947 101.28 17.936 101.333 17.904C101.397 17.8613 101.488 17.84 101.605 17.84H102.565C102.736 17.84 102.789 17.92 102.725 18.08L99.6051 26C99.3811 26.5653 99.1625 27.04 98.9491 27.424C98.7358 27.808 98.5065 28.1173 98.2611 28.352C98.0158 28.5973 97.7491 28.7733 97.4611 28.88C97.1731 28.9867 96.8478 29.04 96.4851 29.04H96.1651C96.0051 29.04 95.9251 28.96 95.9251 28.8V28C95.9251 27.84 96.0051 27.76 96.1651 27.76H96.4851C96.8905 27.76 97.2211 27.6267 97.4771 27.36C97.7438 27.0933 97.9998 26.64 98.2451 26L95.1251 18.08C95.0611 17.92 95.1145 17.84 95.2851 17.84H96.2451C96.3625 17.84 96.4478 17.8613 96.5011 17.904C96.5651 17.936 96.6131 17.9947 96.6451 18.08L98.8851 24.08H98.9651L101.205 18.08ZM109.594 21.2V20.16C109.594 19.7973 109.482 19.5093 109.258 19.296C109.044 19.072 108.756 18.96 108.394 18.96H106.474C106.111 18.96 105.818 19.072 105.594 19.296C105.38 19.5093 105.274 19.7973 105.274 20.16V21.2H109.594ZM105.274 22.48V23.68C105.274 24.0427 105.38 24.336 105.594 24.56C105.818 24.7733 106.111 24.88 106.474 24.88H108.394C108.756 24.88 109.044 24.7733 109.258 24.56C109.482 24.336 109.594 24.0427 109.594 23.68V23.6C109.594 23.44 109.674 23.36 109.834 23.36H110.714C110.874 23.36 110.954 23.44 110.954 23.6V23.68C110.954 24.48 110.735 25.0933 110.298 25.52C109.871 25.9467 109.236 26.16 108.394 26.16H106.474C105.631 26.16 104.991 25.9467 104.554 25.52C104.127 25.0933 103.914 24.48 103.914 23.68V20.16C103.914 19.36 104.127 18.7467 104.554 18.32C104.991 17.8933 105.631 17.68 106.474 17.68H108.394C109.236 17.68 109.871 17.8933 110.298 18.32C110.735 18.7467 110.954 19.36 110.954 20.16V22.24C110.954 22.4 110.874 22.48 110.714 22.48H105.274ZM117.795 24.24L120.675 18.08C120.718 17.9947 120.766 17.936 120.819 17.904C120.883 17.8613 120.995 17.84 121.155 17.84H122.115C122.275 17.84 122.355 17.92 122.355 18.08V25.76C122.355 25.92 122.275 26 122.115 26H121.235C121.075 26 120.995 25.92 120.995 25.76V20.48H120.915L118.435 25.76C118.392 25.8453 118.339 25.9093 118.275 25.952C118.222 25.984 118.115 26 117.955 26H117.555C117.395 26 117.283 25.984 117.219 25.952C117.166 25.9093 117.118 25.8453 117.075 25.76L114.595 20.48H114.515V25.76C114.515 25.92 114.435 26 114.275 26H113.395C113.235 26 113.155 25.92 113.155 25.76V18.08C113.155 17.92 113.235 17.84 113.395 17.84H114.355C114.515 17.84 114.622 17.8613 114.675 17.904C114.739 17.936 114.792 17.9947 114.835 18.08L117.715 24.24H117.795ZM128.561 24.72C128.881 24.72 129.131 24.6293 129.313 24.448C129.505 24.256 129.601 24 129.601 23.68V22.88C129.601 22.56 129.505 22.3093 129.313 22.128C129.131 21.936 128.881 21.84 128.561 21.84H126.081V24.72H128.561ZM124.961 26C124.801 26 124.721 25.92 124.721 25.76V18.08C124.721 17.92 124.801 17.84 124.961 17.84H125.841C126.001 17.84 126.081 17.92 126.081 18.08V20.56H128.561C130.161 20.56 130.961 21.3333 130.961 22.88V23.68C130.961 25.2267 130.161 26 128.561 26H124.961ZM133.681 25.76C133.681 25.92 133.601 26 133.441 26H132.561C132.401 26 132.321 25.92 132.321 25.76V18.08C132.321 17.92 132.401 17.84 132.561 17.84H133.441C133.601 17.84 133.681 17.92 133.681 18.08V25.76ZM141.556 21.2V20.16C141.556 19.7973 141.444 19.5093 141.22 19.296C141.007 19.072 140.719 18.96 140.356 18.96H138.436C138.074 18.96 137.78 19.072 137.556 19.296C137.343 19.5093 137.236 19.7973 137.236 20.16V21.2H141.556ZM137.236 22.48V23.68C137.236 24.0427 137.343 24.336 137.556 24.56C137.78 24.7733 138.074 24.88 138.436 24.88H140.356C140.719 24.88 141.007 24.7733 141.22 24.56C141.444 24.336 141.556 24.0427 141.556 23.68V23.6C141.556 23.44 141.636 23.36 141.796 23.36H142.676C142.836 23.36 142.916 23.44 142.916 23.6V23.68C142.916 24.48 142.698 25.0933 142.26 25.52C141.834 25.9467 141.199 26.16 140.356 26.16H138.436C137.594 26.16 136.954 25.9467 136.516 25.52C136.09 25.0933 135.876 24.48 135.876 23.68V20.16C135.876 19.36 136.09 18.7467 136.516 18.32C136.954 17.8933 137.594 17.68 138.436 17.68H140.356C141.199 17.68 141.834 17.8933 142.26 18.32C142.698 18.7467 142.916 19.36 142.916 20.16V22.24C142.916 22.4 142.836 22.48 142.676 22.48H137.236ZM153.193 18.08C153.225 17.9947 153.267 17.936 153.321 17.904C153.385 17.8613 153.475 17.84 153.593 17.84H154.553C154.723 17.84 154.777 17.92 154.713 18.08L151.593 26C151.369 26.5653 151.15 27.04 150.937 27.424C150.723 27.808 150.494 28.1173 150.249 28.352C150.003 28.5973 149.737 28.7733 149.449 28.88C149.161 28.9867 148.835 29.04 148.473 29.04H148.153C147.993 29.04 147.913 28.96 147.913 28.8V28C147.913 27.84 147.993 27.76 148.153 27.76H148.473C148.878 27.76 149.209 27.6267 149.465 27.36C149.731 27.0933 149.987 26.64 150.233 26L147.113 18.08C147.049 17.92 147.102 17.84 147.273 17.84H148.233C148.35 17.84 148.435 17.8613 148.489 17.904C148.553 17.936 148.601 17.9947 148.633 18.08L150.873 24.08H150.953L153.193 18.08ZM157.261 23.68C157.261 24.0427 157.368 24.336 157.581 24.56C157.805 24.7733 158.099 24.88 158.461 24.88H160.301C160.664 24.88 160.952 24.7733 161.165 24.56C161.389 24.336 161.501 24.0427 161.501 23.68V23.28C161.501 23.12 161.581 23.04 161.741 23.04H162.621C162.781 23.04 162.861 23.12 162.861 23.28V23.68C162.861 24.48 162.643 25.0933 162.205 25.52C161.779 25.9467 161.144 26.16 160.301 26.16H158.461C157.619 26.16 156.979 25.9467 156.541 25.52C156.115 25.0933 155.901 24.48 155.901 23.68V20.16C155.901 19.36 156.115 18.7467 156.541 18.32C156.979 17.8933 157.619 17.68 158.461 17.68H160.301C161.144 17.68 161.779 17.8933 162.205 18.32C162.643 18.7467 162.861 19.36 162.861 20.16V20.56C162.861 20.72 162.781 20.8 162.621 20.8H161.741C161.581 20.8 161.501 20.72 161.501 20.56V20.16C161.501 19.7973 161.389 19.5093 161.165 19.296C160.952 19.072 160.664 18.96 160.301 18.96H158.461C158.099 18.96 157.805 19.072 157.581 19.296C157.368 19.5093 157.261 19.7973 157.261 20.16V23.68ZM166.748 26C166.588 26 166.508 25.92 166.508 25.76V19.12H164.028C163.868 19.12 163.788 19.04 163.788 18.88V18.08C163.788 17.92 163.868 17.84 164.028 17.84H170.348C170.508 17.84 170.588 17.92 170.588 18.08V18.88C170.588 19.04 170.508 19.12 170.348 19.12H167.868V25.76C167.868 25.92 167.788 26 167.628 26H166.748ZM176.233 24.72C176.596 24.72 176.884 24.6133 177.097 24.4C177.321 24.176 177.433 23.8827 177.433 23.52V20.16C177.433 19.7973 177.321 19.5093 177.097 19.296C176.884 19.072 176.596 18.96 176.233 18.96H174.873C174.393 18.96 173.993 19.12 173.673 19.44C173.353 19.76 173.193 20.16 173.193 20.64V24.72H176.233ZM173.193 26V28.8C173.193 28.96 173.113 29.04 172.953 29.04H172.073C171.913 29.04 171.833 28.96 171.833 28.8V18.08C171.833 17.92 171.913 17.84 172.073 17.84H172.953C173.113 17.84 173.193 17.92 173.193 18.08V18.64H173.273C173.358 18.4587 173.481 18.2987 173.641 18.16C173.78 18.0427 173.961 17.936 174.185 17.84C174.409 17.7333 174.692 17.68 175.033 17.68H176.233C177.076 17.68 177.71 17.8933 178.137 18.32C178.574 18.7467 178.793 19.36 178.793 20.16V23.52C178.793 24.32 178.574 24.9333 178.137 25.36C177.71 25.7867 177.076 26 176.233 26H173.193ZM186.592 20.16C186.592 19.7973 186.48 19.5093 186.256 19.296C186.043 19.072 185.755 18.96 185.392 18.96H183.392C183.03 18.96 182.736 19.072 182.512 19.296C182.299 19.5093 182.192 19.7973 182.192 20.16V23.68C182.192 24.0427 182.299 24.336 182.512 24.56C182.736 24.7733 183.03 24.88 183.392 24.88H185.392C185.755 24.88 186.043 24.7733 186.256 24.56C186.48 24.336 186.592 24.0427 186.592 23.68V20.16ZM187.952 23.68C187.952 24.48 187.734 25.0933 187.296 25.52C186.87 25.9467 186.235 26.16 185.392 26.16H183.392C182.55 26.16 181.91 25.9467 181.472 25.52C181.046 25.0933 180.832 24.48 180.832 23.68V20.16C180.832 19.36 181.046 18.7467 181.472 18.32C181.91 17.8933 182.55 17.68 183.392 17.68H185.392C186.235 17.68 186.87 17.8933 187.296 18.32C187.734 18.7467 187.952 19.36 187.952 20.16V23.68ZM193.192 16.56C192.584 16.56 192.125 16.4107 191.816 16.112C191.507 15.8027 191.352 15.3653 191.352 14.8V14.4C191.352 14.24 191.432 14.16 191.592 14.16H192.312C192.472 14.16 192.552 14.24 192.552 14.4V14.8C192.552 15.2267 192.765 15.44 193.192 15.44H194.072C194.499 15.44 194.712 15.2267 194.712 14.8V14.4C194.712 14.24 194.792 14.16 194.952 14.16H195.672C195.832 14.16 195.912 14.24 195.912 14.4V14.8C195.912 15.3653 195.757 15.8027 195.448 16.112C195.139 16.4107 194.68 16.56 194.072 16.56H193.192ZM196.872 17.84C197.032 17.84 197.112 17.92 197.112 18.08V25.76C197.112 25.92 197.032 26 196.872 26H195.992C195.832 26 195.752 25.92 195.752 25.76V19.92H195.672L191.832 25.76C191.779 25.8453 191.725 25.9093 191.672 25.952C191.619 25.984 191.512 26 191.352 26H190.392C190.232 26 190.152 25.92 190.152 25.76V18.08C190.152 17.92 190.232 17.84 190.392 17.84H191.272C191.432 17.84 191.512 17.92 191.512 18.08V23.92H191.592L195.432 18.08C195.485 17.9947 195.539 17.936 195.592 17.904C195.645 17.8613 195.752 17.84 195.912 17.84H196.872ZM200.668 23.68C200.668 24.0427 200.774 24.336 200.988 24.56C201.212 24.7733 201.505 24.88 201.868 24.88H203.708C204.07 24.88 204.358 24.7733 204.572 24.56C204.796 24.336 204.908 24.0427 204.908 23.68V23.28C204.908 23.12 204.988 23.04 205.148 23.04H206.028C206.188 23.04 206.267 23.12 206.267 23.28V23.68C206.267 24.48 206.049 25.0933 205.612 25.52C205.185 25.9467 204.55 26.16 203.708 26.16H201.868C201.025 26.16 200.385 25.9467 199.948 25.52C199.521 25.0933 199.308 24.48 199.308 23.68V20.16C199.308 19.36 199.521 18.7467 199.948 18.32C200.385 17.8933 201.025 17.68 201.868 17.68H203.708C204.55 17.68 205.185 17.8933 205.612 18.32C206.049 18.7467 206.267 19.36 206.267 20.16V20.56C206.267 20.72 206.188 20.8 206.028 20.8H205.148C204.988 20.8 204.908 20.72 204.908 20.56V20.16C204.908 19.7973 204.796 19.5093 204.572 19.296C204.358 19.072 204.07 18.96 203.708 18.96H201.868C201.505 18.96 201.212 19.072 200.988 19.296C200.774 19.5093 200.668 19.7973 200.668 20.16V23.68ZM210.154 26C209.994 26 209.914 25.92 209.914 25.76V19.12H207.434C207.274 19.12 207.194 19.04 207.194 18.88V18.08C207.194 17.92 207.274 17.84 207.434 17.84H213.754C213.914 17.84 213.994 17.92 213.994 18.08V18.88C213.994 19.04 213.914 19.12 213.754 19.12H211.274V25.76C211.274 25.92 211.194 26 211.034 26H210.154ZM219.639 24.72C219.959 24.72 220.21 24.6293 220.391 24.448C220.583 24.256 220.679 24 220.679 23.68V23.52C220.679 23.2 220.583 22.9493 220.391 22.768C220.21 22.576 219.959 22.48 219.639 22.48H216.599V24.72H219.639ZM219.159 21.2C219.479 21.2 219.73 21.1093 219.911 20.928C220.103 20.736 220.199 20.48 220.199 20.16C220.199 19.84 220.103 19.5893 219.911 19.408C219.73 19.216 219.479 19.12 219.159 19.12H216.599V21.2H219.159ZM215.479 26C215.319 26 215.239 25.92 215.239 25.76V18.08C215.239 17.92 215.319 17.84 215.479 17.84H219.159C220.759 17.84 221.559 18.6133 221.559 20.16C221.559 20.48 221.501 20.7413 221.383 20.944C221.277 21.136 221.159 21.2907 221.031 21.408C220.882 21.536 220.711 21.6267 220.519 21.68V21.76C220.797 21.8133 221.047 21.9147 221.271 22.064C221.463 22.192 221.639 22.3733 221.799 22.608C221.959 22.8427 222.039 23.1467 222.039 23.52V23.68C222.039 25.2267 221.239 26 219.639 26H215.479ZM223.594 23.52C223.594 21.9733 224.394 21.2 225.994 21.2H228.954V20.16C228.954 19.7973 228.842 19.5093 228.618 19.296C228.405 19.072 228.117 18.96 227.754 18.96H226.634C226.272 18.96 225.978 19.072 225.754 19.296C225.541 19.5093 225.434 19.7973 225.434 20.16C225.434 20.32 225.354 20.4 225.194 20.4H224.314C224.154 20.4 224.074 20.32 224.074 20.16C224.074 19.36 224.288 18.7467 224.714 18.32C225.152 17.8933 225.792 17.68 226.634 17.68H227.754C228.597 17.68 229.232 17.8933 229.658 18.32C230.096 18.7467 230.314 19.36 230.314 20.16V25.76C230.314 25.92 230.234 26 230.074 26H229.194C229.034 26 228.954 25.92 228.954 25.76V25.2H228.874C228.789 25.3813 228.666 25.5413 228.506 25.68C228.368 25.7973 228.186 25.904 227.962 26C227.738 26.1067 227.456 26.16 227.114 26.16H225.994C224.394 26.16 223.594 25.3867 223.594 23.84V23.52ZM224.954 23.84C224.954 24.16 225.045 24.416 225.226 24.608C225.418 24.7893 225.674 24.88 225.994 24.88H227.274C227.754 24.88 228.154 24.72 228.474 24.4C228.794 24.08 228.954 23.68 228.954 23.2V22.48H225.994C225.674 22.48 225.418 22.576 225.226 22.768C225.045 22.9493 224.954 23.2 224.954 23.52V23.84Z" fill="#7E7E82"/>
</svg>
