<svg width="233" height="40" viewBox="0 0 233 40" fill="none" xmlns="http://www.w3.org/2000/svg">
<path d="M19.232 21.68L17.344 16.56H17.28L15.392 21.68H19.232ZM14.832 23.12L13.872 25.76C13.84 25.8453 13.792 25.9093 13.728 25.952C13.6747 25.984 13.5893 26 13.472 26H12.352C12.1813 26 12.128 25.92 12.192 25.76L16.352 15.04C16.3947 14.9547 16.4427 14.896 16.496 14.864C16.5493 14.8213 16.6347 14.8 16.752 14.8H17.872C17.9893 14.8 18.0747 14.8213 18.128 14.864C18.1813 14.896 18.2293 14.9547 18.272 15.04L22.432 25.76C22.496 25.92 22.4427 26 22.272 26H21.152C21.0347 26 20.944 25.984 20.88 25.952C20.8267 25.9093 20.784 25.8453 20.752 25.76L19.792 23.12H14.832ZM28.505 19.12H25.865L24.745 24.72H28.505V19.12ZM29.865 24.72H30.665C30.825 24.72 30.905 24.8 30.905 24.96V27.52C30.905 27.68 30.825 27.76 30.665 27.76H29.785C29.625 27.76 29.545 27.68 29.545 27.52V26H23.785V27.52C23.785 27.68 23.705 27.76 23.545 27.76H22.665C22.505 27.76 22.425 27.68 22.425 27.52V24.96C22.425 24.8 22.505 24.72 22.665 24.72H23.385L24.745 18.08C24.777 17.92 24.9103 17.84 25.145 17.84H29.625C29.785 17.84 29.865 17.92 29.865 18.08V24.72ZM36.8581 24.72C37.2208 24.72 37.5088 24.6133 37.7221 24.4C37.9461 24.176 38.0581 23.8827 38.0581 23.52V20.16C38.0581 19.7973 37.9461 19.5093 37.7221 19.296C37.5088 19.072 37.2208 18.96 36.8581 18.96H35.4981C35.0181 18.96 34.6181 19.12 34.2981 19.44C33.9781 19.76 33.8181 20.16 33.8181 20.64V24.72H36.8581ZM33.8181 26V28.8C33.8181 28.96 33.7381 29.04 33.5781 29.04H32.6981C32.5381 29.04 32.4581 28.96 32.4581 28.8V18.08C32.4581 17.92 32.5381 17.84 32.6981 17.84H33.5781C33.7381 17.84 33.8181 17.92 33.8181 18.08V18.64H33.8981C33.9835 18.4587 34.1061 18.2987 34.2661 18.16C34.4048 18.0427 34.5861 17.936 34.8101 17.84C35.0341 17.7333 35.3168 17.68 35.6581 17.68H36.8581C37.7008 17.68 38.3355 17.8933 38.7621 18.32C39.1995 18.7467 39.4181 19.36 39.4181 20.16V23.52C39.4181 24.32 39.1995 24.9333 38.7621 25.36C38.3355 25.7867 37.7008 26 36.8581 26H33.8181ZM47.1375 21.2V20.16C47.1375 19.7973 47.0255 19.5093 46.8015 19.296C46.5882 19.072 46.3002 18.96 45.9375 18.96H44.0175C43.6548 18.96 43.3615 19.072 43.1375 19.296C42.9242 19.5093 42.8175 19.7973 42.8175 20.16V21.2H47.1375ZM42.8175 22.48V23.68C42.8175 24.0427 42.9242 24.336 43.1375 24.56C43.3615 24.7733 43.6548 24.88 44.0175 24.88H45.9375C46.3002 24.88 46.5882 24.7733 46.8015 24.56C47.0255 24.336 47.1375 24.0427 47.1375 23.68V23.6C47.1375 23.44 47.2175 23.36 47.3775 23.36H48.2575C48.4175 23.36 48.4975 23.44 48.4975 23.6V23.68C48.4975 24.48 48.2788 25.0933 47.8415 25.52C47.4148 25.9467 46.7802 26.16 45.9375 26.16H44.0175C43.1748 26.16 42.5348 25.9467 42.0975 25.52C41.6708 25.0933 41.4575 24.48 41.4575 23.68V20.16C41.4575 19.36 41.6708 18.7467 42.0975 18.32C42.5348 17.8933 43.1748 17.68 44.0175 17.68H45.9375C46.7802 17.68 47.4148 17.8933 47.8415 18.32C48.2788 18.7467 48.4975 19.36 48.4975 20.16V22.24C48.4975 22.4 48.4175 22.48 48.2575 22.48H42.8175ZM51.8988 23.68C51.8988 24.0427 52.0054 24.336 52.2188 24.56C52.4428 24.7733 52.7361 24.88 53.0988 24.88H54.9388C55.3014 24.88 55.5894 24.7733 55.8028 24.56C56.0268 24.336 56.1388 24.0427 56.1388 23.68V23.28C56.1388 23.12 56.2188 23.04 56.3788 23.04H57.2588C57.4188 23.04 57.4988 23.12 57.4988 23.28V23.68C57.4988 24.48 57.2801 25.0933 56.8428 25.52C56.4161 25.9467 55.7814 26.16 54.9388 26.16H53.0988C52.2561 26.16 51.6161 25.9467 51.1788 25.52C50.7521 25.0933 50.5388 24.48 50.5388 23.68V20.16C50.5388 19.36 50.7521 18.7467 51.1788 18.32C51.6161 17.8933 52.2561 17.68 53.0988 17.68H54.9388C55.7814 17.68 56.4161 17.8933 56.8428 18.32C57.2801 18.7467 57.4988 19.36 57.4988 20.16V20.56C57.4988 20.72 57.4188 20.8 57.2588 20.8H56.3788C56.2188 20.8 56.1388 20.72 56.1388 20.56V20.16C56.1388 19.7973 56.0268 19.5093 55.8028 19.296C55.5894 19.072 55.3014 18.96 54.9388 18.96H53.0988C52.7361 18.96 52.4428 19.072 52.2188 19.296C52.0054 19.5093 51.8988 19.7973 51.8988 20.16V23.68ZM59.2256 23.52C59.2256 21.9733 60.0256 21.2 61.6256 21.2H64.5856V20.16C64.5856 19.7973 64.4736 19.5093 64.2496 19.296C64.0363 19.072 63.7483 18.96 63.3856 18.96H62.2656C61.903 18.96 61.6096 19.072 61.3856 19.296C61.1723 19.5093 61.0656 19.7973 61.0656 20.16C61.0656 20.32 60.9856 20.4 60.8256 20.4H59.9456C59.7856 20.4 59.7056 20.32 59.7056 20.16C59.7056 19.36 59.919 18.7467 60.3456 18.32C60.783 17.8933 61.423 17.68 62.2656 17.68H63.3856C64.2283 17.68 64.863 17.8933 65.2896 18.32C65.727 18.7467 65.9456 19.36 65.9456 20.16V25.76C65.9456 25.92 65.8656 26 65.7056 26H64.8256C64.6656 26 64.5856 25.92 64.5856 25.76V25.2H64.5056C64.4203 25.3813 64.2976 25.5413 64.1376 25.68C63.999 25.7973 63.8176 25.904 63.5936 26C63.3696 26.1067 63.087 26.16 62.7456 26.16H61.6256C60.0256 26.16 59.2256 25.3867 59.2256 23.84V23.52ZM60.5856 23.84C60.5856 24.16 60.6763 24.416 60.8576 24.608C61.0496 24.7893 61.3056 24.88 61.6256 24.88H62.9056C63.3856 24.88 63.7856 24.72 64.1056 24.4C64.4256 24.08 64.5856 23.68 64.5856 23.2V22.48H61.6256C61.3056 22.48 61.0496 22.576 60.8576 22.768C60.6763 22.9493 60.5856 23.2 60.5856 23.52V23.84ZM72.5019 23.68C72.5019 24.0427 72.6085 24.336 72.8219 24.56C73.0459 24.7733 73.3392 24.88 73.7019 24.88H75.5419C75.9045 24.88 76.1925 24.7733 76.4059 24.56C76.6299 24.336 76.7419 24.0427 76.7419 23.68V23.28C76.7419 23.12 76.8219 23.04 76.9819 23.04H77.8619C78.0219 23.04 78.1019 23.12 78.1019 23.28V23.68C78.1019 24.48 77.8832 25.0933 77.4459 25.52C77.0192 25.9467 76.3845 26.16 75.5419 26.16H73.7019C72.8592 26.16 72.2192 25.9467 71.7819 25.52C71.3552 25.0933 71.1419 24.48 71.1419 23.68V20.16C71.1419 19.36 71.3552 18.7467 71.7819 18.32C72.2192 17.8933 72.8592 17.68 73.7019 17.68H75.5419C76.3845 17.68 77.0192 17.8933 77.4459 18.32C77.8832 18.7467 78.1019 19.36 78.1019 20.16V20.56C78.1019 20.72 78.0219 20.8 77.8619 20.8H76.9819C76.8219 20.8 76.7419 20.72 76.7419 20.56V20.16C76.7419 19.7973 76.6299 19.5093 76.4059 19.296C76.1925 19.072 75.9045 18.96 75.5419 18.96H73.7019C73.3392 18.96 73.0459 19.072 72.8219 19.296C72.6085 19.5093 72.5019 19.7973 72.5019 20.16V23.68ZM85.6688 21.2V20.16C85.6688 19.7973 85.5568 19.5093 85.3328 19.296C85.1194 19.072 84.8314 18.96 84.4688 18.96H82.5488C82.1861 18.96 81.8928 19.072 81.6688 19.296C81.4554 19.5093 81.3488 19.7973 81.3488 20.16V21.2H85.6688ZM81.3488 22.48V23.68C81.3488 24.0427 81.4554 24.336 81.6688 24.56C81.8928 24.7733 82.1861 24.88 82.5488 24.88H84.4688C84.8314 24.88 85.1194 24.7733 85.3328 24.56C85.5568 24.336 85.6688 24.0427 85.6688 23.68V23.6C85.6688 23.44 85.7488 23.36 85.9088 23.36H86.7888C86.9488 23.36 87.0288 23.44 87.0288 23.6V23.68C87.0288 24.48 86.8101 25.0933 86.3728 25.52C85.9461 25.9467 85.3114 26.16 84.4688 26.16H82.5488C81.7061 26.16 81.0661 25.9467 80.6288 25.52C80.2021 25.0933 79.9888 24.48 79.9888 23.68V20.16C79.9888 19.36 80.2021 18.7467 80.6288 18.32C81.0661 17.8933 81.7061 17.68 82.5488 17.68H84.4688C85.3114 17.68 85.9461 17.8933 86.3728 18.32C86.8101 18.7467 87.0288 19.36 87.0288 20.16V22.24C87.0288 22.4 86.9488 22.48 86.7888 22.48H81.3488ZM93.63 24.72C93.9927 24.72 94.2807 24.6133 94.494 24.4C94.718 24.176 94.83 23.8827 94.83 23.52V20.16C94.83 19.7973 94.718 19.5093 94.494 19.296C94.2807 19.072 93.9927 18.96 93.63 18.96H92.27C91.79 18.96 91.39 19.12 91.07 19.44C90.75 19.76 90.59 20.16 90.59 20.64V24.72H93.63ZM90.59 26V28.8C90.59 28.96 90.51 29.04 90.35 29.04H89.47C89.31 29.04 89.23 28.96 89.23 28.8V18.08C89.23 17.92 89.31 17.84 89.47 17.84H90.35C90.51 17.84 90.59 17.92 90.59 18.08V18.64H90.67C90.7553 18.4587 90.878 18.2987 91.038 18.16C91.1767 18.0427 91.358 17.936 91.582 17.84C91.806 17.7333 92.0887 17.68 92.43 17.68H93.63C94.4727 17.68 95.1073 17.8933 95.534 18.32C95.9713 18.7467 96.19 19.36 96.19 20.16V23.52C96.19 24.32 95.9713 24.9333 95.534 25.36C95.1073 25.7867 94.4727 26 93.63 26H90.59ZM102.789 24.72C103.109 24.72 103.36 24.6293 103.541 24.448C103.733 24.256 103.829 24 103.829 23.68V23.52C103.829 23.2 103.733 22.9493 103.541 22.768C103.36 22.576 103.109 22.48 102.789 22.48H99.7494V24.72H102.789ZM102.309 21.2C102.629 21.2 102.88 21.1093 103.061 20.928C103.253 20.736 103.349 20.48 103.349 20.16C103.349 19.84 103.253 19.5893 103.061 19.408C102.88 19.216 102.629 19.12 102.309 19.12H99.7494V21.2H102.309ZM98.6294 26C98.4694 26 98.3894 25.92 98.3894 25.76V18.08C98.3894 17.92 98.4694 17.84 98.6294 17.84H102.309C103.909 17.84 104.709 18.6133 104.709 20.16C104.709 20.48 104.651 20.7413 104.533 20.944C104.427 21.136 104.309 21.2907 104.181 21.408C104.032 21.536 103.861 21.6267 103.669 21.68V21.76C103.947 21.8133 104.197 21.9147 104.421 22.064C104.613 22.192 104.789 22.3733 104.949 22.608C105.109 22.8427 105.189 23.1467 105.189 23.52V23.68C105.189 25.2267 104.389 26 102.789 26H98.6294ZM113.784 17.84C113.944 17.84 114.024 17.92 114.024 18.08V25.76C114.024 25.92 113.944 26 113.784 26H112.904C112.744 26 112.664 25.92 112.664 25.76V19.92H112.584L108.744 25.76C108.691 25.8453 108.638 25.9093 108.584 25.952C108.531 25.984 108.424 26 108.264 26H107.304C107.144 26 107.064 25.92 107.064 25.76V18.08C107.064 17.92 107.144 17.84 107.304 17.84H108.184C108.344 17.84 108.424 17.92 108.424 18.08V23.92H108.504L112.344 18.08C112.398 17.9947 112.451 17.936 112.504 17.904C112.558 17.8613 112.664 17.84 112.824 17.84H113.784ZM117.58 23.68C117.58 24.0427 117.687 24.336 117.9 24.56C118.124 24.7733 118.417 24.88 118.78 24.88H120.62C120.983 24.88 121.271 24.7733 121.484 24.56C121.708 24.336 121.82 24.0427 121.82 23.68V23.28C121.82 23.12 121.9 23.04 122.06 23.04H122.94C123.1 23.04 123.18 23.12 123.18 23.28V23.68C123.18 24.48 122.961 25.0933 122.524 25.52C122.097 25.9467 121.463 26.16 120.62 26.16H118.78C117.937 26.16 117.297 25.9467 116.86 25.52C116.433 25.0933 116.22 24.48 116.22 23.68V20.16C116.22 19.36 116.433 18.7467 116.86 18.32C117.297 17.8933 117.937 17.68 118.78 17.68H120.62C121.463 17.68 122.097 17.8933 122.524 18.32C122.961 18.7467 123.18 19.36 123.18 20.16V20.56C123.18 20.72 123.1 20.8 122.94 20.8H122.06C121.9 20.8 121.82 20.72 121.82 20.56V20.16C121.82 19.7973 121.708 19.5093 121.484 19.296C121.271 19.072 120.983 18.96 120.62 18.96H118.78C118.417 18.96 118.124 19.072 117.9 19.296C117.687 19.5093 117.58 19.7973 117.58 20.16V23.68ZM126.587 22.48V25.76C126.587 25.92 126.507 26 126.347 26H125.467C125.307 26 125.227 25.92 125.227 25.76V18.08C125.227 17.92 125.307 17.84 125.467 17.84H126.347C126.507 17.84 126.587 17.92 126.587 18.08V21.28H130.667V18.08C130.667 17.92 130.747 17.84 130.907 17.84H131.787C131.947 17.84 132.027 17.92 132.027 18.08V25.76C132.027 25.92 131.947 26 131.787 26H130.907C130.747 26 130.667 25.92 130.667 25.76V22.48H126.587ZM138.226 24.72C138.546 24.72 138.797 24.6293 138.978 24.448C139.17 24.256 139.266 24 139.266 23.68V22.88C139.266 22.56 139.17 22.3093 138.978 22.128C138.797 21.936 138.546 21.84 138.226 21.84H135.746V24.72H138.226ZM134.626 26C134.466 26 134.386 25.92 134.386 25.76V18.08C134.386 17.92 134.466 17.84 134.626 17.84H135.506C135.666 17.84 135.746 17.92 135.746 18.08V20.56H138.226C139.826 20.56 140.626 21.3333 140.626 22.88V23.68C140.626 25.2267 139.826 26 138.226 26H134.626ZM143.346 25.76C143.346 25.92 143.266 26 143.106 26H142.226C142.066 26 141.986 25.92 141.986 25.76V18.08C141.986 17.92 142.066 17.84 142.226 17.84H143.106C143.266 17.84 143.346 17.92 143.346 18.08V25.76ZM148.23 20.8L149.99 18.08C150.043 17.9947 150.091 17.936 150.134 17.904C150.187 17.8613 150.273 17.84 150.39 17.84H151.35C151.435 17.84 151.494 17.8613 151.526 17.904C151.569 17.936 151.563 17.9947 151.51 18.08L149.11 21.76L151.75 25.76C151.803 25.8347 151.809 25.8933 151.766 25.936C151.734 25.9787 151.675 26 151.59 26H150.63C150.513 26 150.427 25.984 150.374 25.952C150.331 25.9093 150.283 25.8453 150.23 25.76L148.23 22.72L146.23 25.76C146.177 25.8453 146.123 25.9093 146.07 25.952C146.027 25.984 145.947 26 145.83 26H144.87C144.785 26 144.721 25.9787 144.678 25.936C144.646 25.8933 144.657 25.8347 144.71 25.76L147.35 21.76L144.95 18.08C144.897 17.9947 144.886 17.936 144.918 17.904C144.961 17.8613 145.025 17.84 145.11 17.84H146.07C146.187 17.84 146.267 17.8613 146.31 17.904C146.363 17.936 146.417 17.9947 146.47 18.08L148.23 20.8ZM156.354 26C156.194 26 156.114 25.92 156.114 25.76V18.08C156.114 17.92 156.194 17.84 156.354 17.84H157.234C157.394 17.84 157.474 17.92 157.474 18.08V24.72H161.394V18.08C161.394 17.92 161.474 17.84 161.634 17.84H162.514C162.674 17.84 162.754 17.92 162.754 18.08V24.96L164.194 26.56C164.237 26.6027 164.258 26.656 164.258 26.72C164.258 26.784 164.237 26.8373 164.194 26.88L163.474 27.52C163.357 27.616 163.25 27.616 163.154 27.52L161.794 26H156.354ZM170.856 21.2V20.16C170.856 19.7973 170.744 19.5093 170.52 19.296C170.307 19.072 170.019 18.96 169.656 18.96H167.736C167.374 18.96 167.08 19.072 166.856 19.296C166.643 19.5093 166.536 19.7973 166.536 20.16V21.2H170.856ZM166.536 22.48V23.68C166.536 24.0427 166.643 24.336 166.856 24.56C167.08 24.7733 167.374 24.88 167.736 24.88H169.656C170.019 24.88 170.307 24.7733 170.52 24.56C170.744 24.336 170.856 24.0427 170.856 23.68V23.6C170.856 23.44 170.936 23.36 171.096 23.36H171.976C172.136 23.36 172.216 23.44 172.216 23.6V23.68C172.216 24.48 171.998 25.0933 171.56 25.52C171.134 25.9467 170.499 26.16 169.656 26.16H167.736C166.894 26.16 166.254 25.9467 165.816 25.52C165.39 25.0933 165.176 24.48 165.176 23.68V20.16C165.176 19.36 165.39 18.7467 165.816 18.32C166.254 17.8933 166.894 17.68 167.736 17.68H169.656C170.499 17.68 171.134 17.8933 171.56 18.32C171.998 18.7467 172.216 19.36 172.216 20.16V22.24C172.216 22.4 172.136 22.48 171.976 22.48H166.536ZM175.777 22.48V25.76C175.777 25.92 175.697 26 175.537 26H174.657C174.497 26 174.417 25.92 174.417 25.76V18.08C174.417 17.92 174.497 17.84 174.657 17.84H175.537C175.697 17.84 175.777 17.92 175.777 18.08V21.28H179.857V18.08C179.857 17.92 179.937 17.84 180.097 17.84H180.977C181.137 17.84 181.217 17.92 181.217 18.08V25.76C181.217 25.92 181.137 26 180.977 26H180.097C179.937 26 179.857 25.92 179.857 25.76V22.48H175.777ZM185.417 26C185.257 26 185.177 25.92 185.177 25.76V19.12H182.697C182.537 19.12 182.457 19.04 182.457 18.88V18.08C182.457 17.92 182.537 17.84 182.697 17.84H189.017C189.177 17.84 189.257 17.92 189.257 18.08V18.88C189.257 19.04 189.177 19.12 189.017 19.12H186.537V25.76C186.537 25.92 186.457 26 186.297 26H185.417ZM194.902 24.72C195.265 24.72 195.553 24.6133 195.766 24.4C195.99 24.176 196.102 23.8827 196.102 23.52V20.16C196.102 19.7973 195.99 19.5093 195.766 19.296C195.553 19.072 195.265 18.96 194.902 18.96H193.542C193.062 18.96 192.662 19.12 192.342 19.44C192.022 19.76 191.862 20.16 191.862 20.64V24.72H194.902ZM191.862 26V28.8C191.862 28.96 191.782 29.04 191.622 29.04H190.742C190.582 29.04 190.502 28.96 190.502 28.8V18.08C190.502 17.92 190.582 17.84 190.742 17.84H191.622C191.782 17.84 191.862 17.92 191.862 18.08V18.64H191.942C192.027 18.4587 192.15 18.2987 192.31 18.16C192.449 18.0427 192.63 17.936 192.854 17.84C193.078 17.7333 193.361 17.68 193.702 17.68H194.902C195.745 17.68 196.379 17.8933 196.806 18.32C197.243 18.7467 197.462 19.36 197.462 20.16V23.52C197.462 24.32 197.243 24.9333 196.806 25.36C196.379 25.7867 195.745 26 194.902 26H191.862ZM205.261 20.16C205.261 19.7973 205.149 19.5093 204.925 19.296C204.712 19.072 204.424 18.96 204.061 18.96H202.061C201.699 18.96 201.405 19.072 201.181 19.296C200.968 19.5093 200.861 19.7973 200.861 20.16V23.68C200.861 24.0427 200.968 24.336 201.181 24.56C201.405 24.7733 201.699 24.88 202.061 24.88H204.061C204.424 24.88 204.712 24.7733 204.925 24.56C205.149 24.336 205.261 24.0427 205.261 23.68V20.16ZM206.621 23.68C206.621 24.48 206.403 25.0933 205.965 25.52C205.539 25.9467 204.904 26.16 204.061 26.16H202.061C201.219 26.16 200.579 25.9467 200.141 25.52C199.715 25.0933 199.501 24.48 199.501 23.68V20.16C199.501 19.36 199.715 18.7467 200.141 18.32C200.579 17.8933 201.219 17.68 202.061 17.68H204.061C204.904 17.68 205.539 17.8933 205.965 18.32C206.403 18.7467 206.621 19.36 206.621 20.16V23.68ZM213.221 24.72C213.541 24.72 213.791 24.6293 213.973 24.448C214.165 24.256 214.261 24 214.261 23.68V23.52C214.261 23.2 214.165 22.9493 213.973 22.768C213.791 22.576 213.541 22.48 213.221 22.48H210.181V24.72H213.221ZM212.741 21.2C213.061 21.2 213.311 21.1093 213.493 20.928C213.685 20.736 213.781 20.48 213.781 20.16C213.781 19.84 213.685 19.5893 213.493 19.408C213.311 19.216 213.061 19.12 212.741 19.12H210.181V21.2H212.741ZM209.061 26C208.901 26 208.821 25.92 208.821 25.76V18.08C208.821 17.92 208.901 17.84 209.061 17.84H212.741C214.341 17.84 215.141 18.6133 215.141 20.16C215.141 20.48 215.082 20.7413 214.965 20.944C214.858 21.136 214.741 21.2907 214.613 21.408C214.463 21.536 214.293 21.6267 214.101 21.68V21.76C214.378 21.8133 214.629 21.9147 214.853 22.064C215.045 22.192 215.221 22.3733 215.381 22.608C215.541 22.8427 215.621 23.1467 215.621 23.52V23.68C215.621 25.2267 214.821 26 213.221 26H209.061Z" fill="#7E7E82"/>
</svg>
