<svg width="233" height="41" viewBox="0 0 233 41" fill="none" xmlns="http://www.w3.org/2000/svg">
<rect x="-1" y="1" width="231" height="38" rx="5" transform="matrix(-1 0 0 1 231 0.374512)" fill="white" stroke="#B8FFEC" stroke-width="2"/>
<path d="M30.3196 21.04C31.2263 21.04 31.6796 20.5867 31.6796 19.68V17.6C31.6796 16.6933 31.2263 16.24 30.3196 16.24H25.7596V21.04H30.3196ZM25.7596 22.48V25.76C25.7596 25.92 25.6796 26 25.5196 26H24.4796C24.3196 26 24.2396 25.92 24.2396 25.76V15.04C24.2396 14.88 24.3196 14.8 24.4796 14.8H30.3196C32.2396 14.8 33.1996 15.7333 33.1996 17.6V19.68C33.1996 21.5467 32.2396 22.48 30.3196 22.48H25.7596ZM40.9271 21.2V20.16C40.9271 19.7973 40.8151 19.5093 40.5911 19.296C40.3778 19.072 40.0898 18.96 39.7271 18.96H37.8071C37.4445 18.96 37.1511 19.072 36.9271 19.296C36.7138 19.5093 36.6071 19.7973 36.6071 20.16V21.2H40.9271ZM36.6071 22.48V23.68C36.6071 24.0427 36.7138 24.336 36.9271 24.56C37.1511 24.7733 37.4445 24.88 37.8071 24.88H39.7271C40.0898 24.88 40.3778 24.7733 40.5911 24.56C40.8151 24.336 40.9271 24.0427 40.9271 23.68V23.6C40.9271 23.44 41.0071 23.36 41.1671 23.36H42.0471C42.2071 23.36 42.2871 23.44 42.2871 23.6V23.68C42.2871 24.48 42.0685 25.0933 41.6311 25.52C41.2045 25.9467 40.5698 26.16 39.7271 26.16H37.8071C36.9645 26.16 36.3245 25.9467 35.8871 25.52C35.4605 25.0933 35.2471 24.48 35.2471 23.68V20.16C35.2471 19.36 35.4605 18.7467 35.8871 18.32C36.3245 17.8933 36.9645 17.68 37.8071 17.68H39.7271C40.5698 17.68 41.2045 17.8933 41.6311 18.32C42.0685 18.7467 42.2871 19.36 42.2871 20.16V22.24C42.2871 22.4 42.2071 22.48 42.0471 22.48H36.6071ZM49.1284 24.24L52.0084 18.08C52.0511 17.9947 52.0991 17.936 52.1524 17.904C52.2164 17.8613 52.3284 17.84 52.4884 17.84H53.4484C53.6084 17.84 53.6884 17.92 53.6884 18.08V25.76C53.6884 25.92 53.6084 26 53.4484 26H52.5684C52.4084 26 52.3284 25.92 52.3284 25.76V20.48H52.2484L49.7684 25.76C49.7257 25.8453 49.6724 25.9093 49.6084 25.952C49.5551 25.984 49.4484 26 49.2884 26H48.8884C48.7284 26 48.6164 25.984 48.5524 25.952C48.4991 25.9093 48.4511 25.8453 48.4084 25.76L45.9284 20.48H45.8484V25.76C45.8484 25.92 45.7684 26 45.6084 26H44.7284C44.5684 26 44.4884 25.92 44.4884 25.76V18.08C44.4884 17.92 44.5684 17.84 44.7284 17.84H45.6884C45.8484 17.84 45.9551 17.8613 46.0084 17.904C46.0724 17.936 46.1257 17.9947 46.1684 18.08L49.0484 24.24H49.1284ZM61.654 20.16C61.654 19.7973 61.542 19.5093 61.318 19.296C61.1047 19.072 60.8167 18.96 60.454 18.96H58.454C58.0914 18.96 57.798 19.072 57.574 19.296C57.3607 19.5093 57.254 19.7973 57.254 20.16V23.68C57.254 24.0427 57.3607 24.336 57.574 24.56C57.798 24.7733 58.0914 24.88 58.454 24.88H60.454C60.8167 24.88 61.1047 24.7733 61.318 24.56C61.542 24.336 61.654 24.0427 61.654 23.68V20.16ZM63.014 23.68C63.014 24.48 62.7954 25.0933 62.358 25.52C61.9314 25.9467 61.2967 26.16 60.454 26.16H58.454C57.6114 26.16 56.9714 25.9467 56.534 25.52C56.1074 25.0933 55.894 24.48 55.894 23.68V20.16C55.894 19.36 56.1074 18.7467 56.534 18.32C56.9714 17.8933 57.6114 17.68 58.454 17.68H60.454C61.2967 17.68 61.9314 17.8933 62.358 18.32C62.7954 18.7467 63.014 19.36 63.014 20.16V23.68ZM66.5734 22.48V25.76C66.5734 25.92 66.4934 26 66.3334 26H65.4534C65.2934 26 65.2134 25.92 65.2134 25.76V18.08C65.2134 17.92 65.2934 17.84 65.4534 17.84H66.3334C66.4934 17.84 66.5734 17.92 66.5734 18.08V21.28H70.6534V18.08C70.6534 17.92 70.7334 17.84 70.8934 17.84H71.7734C71.9334 17.84 72.0134 17.92 72.0134 18.08V25.76C72.0134 25.92 71.9334 26 71.7734 26H70.8934C70.7334 26 70.6534 25.92 70.6534 25.76V22.48H66.5734ZM76.2128 26C76.0528 26 75.9728 25.92 75.9728 25.76V19.12H73.4928C73.3328 19.12 73.2528 19.04 73.2528 18.88V18.08C73.2528 17.92 73.3328 17.84 73.4928 17.84H79.8128C79.9728 17.84 80.0528 17.92 80.0528 18.08V18.88C80.0528 19.04 79.9728 19.12 79.8128 19.12H77.3328V25.76C77.3328 25.92 77.2528 26 77.0928 26H76.2128ZM88.0178 17.84C88.1778 17.84 88.2578 17.92 88.2578 18.08V25.76C88.2578 25.92 88.1778 26 88.0178 26H87.1378C86.9778 26 86.8978 25.92 86.8978 25.76V19.92H86.8178L82.9778 25.76C82.9244 25.8453 82.8711 25.9093 82.8178 25.952C82.7644 25.984 82.6578 26 82.4978 26H81.5378C81.3778 26 81.2978 25.92 81.2978 25.76V18.08C81.2978 17.92 81.3778 17.84 81.5378 17.84H82.4178C82.5778 17.84 82.6578 17.92 82.6578 18.08V23.92H82.7378L86.5778 18.08C86.6311 17.9947 86.6844 17.936 86.7378 17.904C86.7911 17.8613 86.8978 17.84 87.0578 17.84H88.0178ZM95.0134 24.72C95.3761 24.72 95.6641 24.6133 95.8774 24.4C96.1014 24.176 96.2134 23.8827 96.2134 23.52V20.16C96.2134 19.7973 96.1014 19.5093 95.8774 19.296C95.6641 19.072 95.3761 18.96 95.0134 18.96H93.6534C93.1734 18.96 92.7734 19.12 92.4534 19.44C92.1334 19.76 91.9734 20.16 91.9734 20.64V24.72H95.0134ZM91.9734 26V28.8C91.9734 28.96 91.8934 29.04 91.7334 29.04H90.8534C90.6934 29.04 90.6134 28.96 90.6134 28.8V18.08C90.6134 17.92 90.6934 17.84 90.8534 17.84H91.7334C91.8934 17.84 91.9734 17.92 91.9734 18.08V18.64H92.0534C92.1387 18.4587 92.2614 18.2987 92.4214 18.16C92.5601 18.0427 92.7414 17.936 92.9654 17.84C93.1894 17.7333 93.4721 17.68 93.8134 17.68H95.0134C95.8561 17.68 96.4907 17.8933 96.9174 18.32C97.3547 18.7467 97.5734 19.36 97.5734 20.16V23.52C97.5734 24.32 97.3547 24.9333 96.9174 25.36C96.4907 25.7867 95.8561 26 95.0134 26H91.9734ZM104.845 18.08C104.877 17.9947 104.919 17.936 104.973 17.904C105.037 17.8613 105.127 17.84 105.245 17.84H106.205C106.375 17.84 106.429 17.92 106.365 18.08L103.245 26C103.021 26.5653 102.802 27.04 102.589 27.424C102.375 27.808 102.146 28.1173 101.901 28.352C101.655 28.5973 101.389 28.7733 101.101 28.88C100.813 28.9867 100.487 29.04 100.125 29.04H99.8048C99.6448 29.04 99.5648 28.96 99.5648 28.8V28C99.5648 27.84 99.6448 27.76 99.8048 27.76H100.125C100.53 27.76 100.861 27.6267 101.117 27.36C101.383 27.0933 101.639 26.64 101.885 26L98.7648 18.08C98.7008 17.92 98.7541 17.84 98.9248 17.84H99.8848C100.002 17.84 100.087 17.8613 100.141 17.904C100.205 17.936 100.253 17.9947 100.285 18.08L102.525 24.08H102.605L104.845 18.08ZM113.233 21.2V20.16C113.233 19.7973 113.121 19.5093 112.897 19.296C112.684 19.072 112.396 18.96 112.033 18.96H110.113C109.751 18.96 109.457 19.072 109.233 19.296C109.02 19.5093 108.913 19.7973 108.913 20.16V21.2H113.233ZM108.913 22.48V23.68C108.913 24.0427 109.02 24.336 109.233 24.56C109.457 24.7733 109.751 24.88 110.113 24.88H112.033C112.396 24.88 112.684 24.7733 112.897 24.56C113.121 24.336 113.233 24.0427 113.233 23.68V23.6C113.233 23.44 113.313 23.36 113.473 23.36H114.353C114.513 23.36 114.593 23.44 114.593 23.6V23.68C114.593 24.48 114.375 25.0933 113.937 25.52C113.511 25.9467 112.876 26.16 112.033 26.16H110.113C109.271 26.16 108.631 25.9467 108.193 25.52C107.767 25.0933 107.553 24.48 107.553 23.68V20.16C107.553 19.36 107.767 18.7467 108.193 18.32C108.631 17.8933 109.271 17.68 110.113 17.68H112.033C112.876 17.68 113.511 17.8933 113.937 18.32C114.375 18.7467 114.593 19.36 114.593 20.16V22.24C114.593 22.4 114.513 22.48 114.353 22.48H108.913ZM121.435 24.24L124.315 18.08C124.357 17.9947 124.405 17.936 124.459 17.904C124.523 17.8613 124.635 17.84 124.795 17.84H125.755C125.915 17.84 125.995 17.92 125.995 18.08V25.76C125.995 25.92 125.915 26 125.755 26H124.875C124.715 26 124.635 25.92 124.635 25.76V20.48H124.555L122.075 25.76C122.032 25.8453 121.979 25.9093 121.915 25.952C121.861 25.984 121.755 26 121.595 26H121.195C121.035 26 120.923 25.984 120.859 25.952C120.805 25.9093 120.757 25.8453 120.715 25.76L118.235 20.48H118.155V25.76C118.155 25.92 118.075 26 117.915 26H117.035C116.875 26 116.795 25.92 116.795 25.76V18.08C116.795 17.92 116.875 17.84 117.035 17.84H117.995C118.155 17.84 118.261 17.8613 118.315 17.904C118.379 17.936 118.432 17.9947 118.475 18.08L121.355 24.24H121.435ZM132.2 24.72C132.52 24.72 132.771 24.6293 132.952 24.448C133.144 24.256 133.24 24 133.24 23.68V22.88C133.24 22.56 133.144 22.3093 132.952 22.128C132.771 21.936 132.52 21.84 132.2 21.84H129.72V24.72H132.2ZM128.6 26C128.44 26 128.36 25.92 128.36 25.76V18.08C128.36 17.92 128.44 17.84 128.6 17.84H129.48C129.64 17.84 129.72 17.92 129.72 18.08V20.56H132.2C133.8 20.56 134.6 21.3333 134.6 22.88V23.68C134.6 25.2267 133.8 26 132.2 26H128.6ZM137.32 25.76C137.32 25.92 137.24 26 137.08 26H136.2C136.04 26 135.96 25.92 135.96 25.76V18.08C135.96 17.92 136.04 17.84 136.2 17.84H137.08C137.24 17.84 137.32 17.92 137.32 18.08V25.76ZM145.196 21.2V20.16C145.196 19.7973 145.084 19.5093 144.86 19.296C144.647 19.072 144.359 18.96 143.996 18.96H142.076C141.713 18.96 141.42 19.072 141.196 19.296C140.983 19.5093 140.876 19.7973 140.876 20.16V21.2H145.196ZM140.876 22.48V23.68C140.876 24.0427 140.983 24.336 141.196 24.56C141.42 24.7733 141.713 24.88 142.076 24.88H143.996C144.359 24.88 144.647 24.7733 144.86 24.56C145.084 24.336 145.196 24.0427 145.196 23.68V23.6C145.196 23.44 145.276 23.36 145.436 23.36H146.316C146.476 23.36 146.556 23.44 146.556 23.6V23.68C146.556 24.48 146.337 25.0933 145.9 25.52C145.473 25.9467 144.839 26.16 143.996 26.16H142.076C141.233 26.16 140.593 25.9467 140.156 25.52C139.729 25.0933 139.516 24.48 139.516 23.68V20.16C139.516 19.36 139.729 18.7467 140.156 18.32C140.593 17.8933 141.233 17.68 142.076 17.68H143.996C144.839 17.68 145.473 17.8933 145.9 18.32C146.337 18.7467 146.556 19.36 146.556 20.16V22.24C146.556 22.4 146.476 22.48 146.316 22.48H140.876ZM152.96 23.68C152.96 24.0427 153.067 24.336 153.28 24.56C153.504 24.7733 153.798 24.88 154.16 24.88H155.92C156.283 24.88 156.571 24.7733 156.784 24.56C157.008 24.336 157.12 24.0427 157.12 23.68V21.6C157.12 21.2373 157.008 20.9493 156.784 20.736C156.571 20.512 156.283 20.4 155.92 20.4H152.96V23.68ZM151.6 18.48C151.6 16.8693 152.454 15.9893 154.16 15.84L156.08 15.68C156.326 15.6587 156.507 15.584 156.624 15.456C156.742 15.328 156.8 15.1627 156.8 14.96V14.88C156.8 14.72 156.88 14.64 157.04 14.64H157.92C158.08 14.64 158.16 14.72 158.16 14.88V14.96C158.16 15.6427 157.995 16.1493 157.664 16.48C157.334 16.8 156.806 16.9867 156.08 17.04L154.16 17.2C153.798 17.232 153.504 17.3653 153.28 17.6C153.067 17.824 152.96 18.1173 152.96 18.48V19.12H155.92C156.763 19.12 157.398 19.3333 157.824 19.76C158.262 20.1867 158.48 20.8 158.48 21.6V23.68C158.48 24.48 158.262 25.0933 157.824 25.52C157.398 25.9467 156.763 26.16 155.92 26.16H154.16C153.318 26.16 152.678 25.9467 152.24 25.52C151.814 25.0933 151.6 24.48 151.6 23.68V18.48ZM164.913 24.72C165.276 24.72 165.564 24.6133 165.777 24.4C166.001 24.176 166.113 23.8827 166.113 23.52V20.16C166.113 19.7973 166.001 19.5093 165.777 19.296C165.564 19.072 165.276 18.96 164.913 18.96H163.553C163.073 18.96 162.673 19.12 162.353 19.44C162.033 19.76 161.873 20.16 161.873 20.64V24.72H164.913ZM161.873 26V28.8C161.873 28.96 161.793 29.04 161.633 29.04H160.753C160.593 29.04 160.513 28.96 160.513 28.8V18.08C160.513 17.92 160.593 17.84 160.753 17.84H161.633C161.793 17.84 161.873 17.92 161.873 18.08V18.64H161.953C162.039 18.4587 162.161 18.2987 162.321 18.16C162.46 18.0427 162.641 17.936 162.865 17.84C163.089 17.7333 163.372 17.68 163.713 17.68H164.913C165.756 17.68 166.391 17.8933 166.817 18.32C167.255 18.7467 167.473 19.36 167.473 20.16V23.52C167.473 24.32 167.255 24.9333 166.817 25.36C166.391 25.7867 165.756 26 164.913 26H161.873ZM175.193 21.2V20.16C175.193 19.7973 175.081 19.5093 174.857 19.296C174.643 19.072 174.355 18.96 173.993 18.96H172.073C171.71 18.96 171.417 19.072 171.193 19.296C170.979 19.5093 170.873 19.7973 170.873 20.16V21.2H175.193ZM170.873 22.48V23.68C170.873 24.0427 170.979 24.336 171.193 24.56C171.417 24.7733 171.71 24.88 172.073 24.88H173.993C174.355 24.88 174.643 24.7733 174.857 24.56C175.081 24.336 175.193 24.0427 175.193 23.68V23.6C175.193 23.44 175.273 23.36 175.433 23.36H176.313C176.473 23.36 176.553 23.44 176.553 23.6V23.68C176.553 24.48 176.334 25.0933 175.897 25.52C175.47 25.9467 174.835 26.16 173.993 26.16H172.073C171.23 26.16 170.59 25.9467 170.153 25.52C169.726 25.0933 169.513 24.48 169.513 23.68V20.16C169.513 19.36 169.726 18.7467 170.153 18.32C170.59 17.8933 171.23 17.68 172.073 17.68H173.993C174.835 17.68 175.47 17.8933 175.897 18.32C176.334 18.7467 176.553 19.36 176.553 20.16V22.24C176.553 22.4 176.473 22.48 176.313 22.48H170.873ZM180.114 22.48V25.76C180.114 25.92 180.034 26 179.874 26H178.994C178.834 26 178.754 25.92 178.754 25.76V18.08C178.754 17.92 178.834 17.84 178.994 17.84H179.874C180.034 17.84 180.114 17.92 180.114 18.08V21.28H184.194V18.08C184.194 17.92 184.274 17.84 184.434 17.84H185.314C185.474 17.84 185.554 17.92 185.554 18.08V25.76C185.554 25.92 185.474 26 185.314 26H184.434C184.274 26 184.194 25.92 184.194 25.76V22.48H180.114ZM192.713 19.12H190.073L188.953 24.72H192.713V19.12ZM194.073 24.72H194.873C195.033 24.72 195.113 24.8 195.113 24.96V27.52C195.113 27.68 195.033 27.76 194.873 27.76H193.993C193.833 27.76 193.753 27.68 193.753 27.52V26H187.993V27.52C187.993 27.68 187.913 27.76 187.753 27.76H186.873C186.713 27.76 186.633 27.68 186.633 27.52V24.96C186.633 24.8 186.713 24.72 186.873 24.72H187.593L188.953 18.08C188.985 17.92 189.119 17.84 189.353 17.84H193.833C193.993 17.84 194.073 17.92 194.073 18.08V24.72ZM200.507 24.72C200.827 24.72 201.077 24.6293 201.259 24.448C201.451 24.256 201.547 24 201.547 23.68V22.88C201.547 22.56 201.451 22.3093 201.259 22.128C201.077 21.936 200.827 21.84 200.507 21.84H198.027V24.72H200.507ZM196.907 26C196.747 26 196.667 25.92 196.667 25.76V18.08C196.667 17.92 196.747 17.84 196.907 17.84H197.787C197.947 17.84 198.027 17.92 198.027 18.08V20.56H200.507C202.107 20.56 202.907 21.3333 202.907 22.88V23.68C202.907 25.2267 202.107 26 200.507 26H196.907ZM205.627 25.76C205.627 25.92 205.547 26 205.387 26H204.507C204.347 26 204.267 25.92 204.267 25.76V18.08C204.267 17.92 204.347 17.84 204.507 17.84H205.387C205.547 17.84 205.627 17.92 205.627 18.08V25.76Z" fill="#7E7E82"/>
</svg>
