<svg width="95" height="40" viewBox="0 0 95 40" fill="none" xmlns="http://www.w3.org/2000/svg">
<path d="M25.44 21.44C25.44 19.5733 26.4 18.64 28.32 18.64H32.32C34.24 18.64 35.2 19.5733 35.2 21.44V27.36C35.2 29.2267 34.24 30.16 32.32 30.16H28.32C26.4 30.16 25.44 29.2267 25.44 27.36V21.44ZM33.68 21.44C33.68 20.5333 33.2267 20.08 32.32 20.08H28.32C27.4133 20.08 26.96 20.5333 26.96 21.44V27.36C26.96 28.2667 27.4133 28.72 28.32 28.72H32.32C33.2267 28.72 33.68 28.2667 33.68 27.36V21.44ZM39.5606 30C39.4006 30 39.3206 29.92 39.3206 29.76V23.12H36.8406C36.6806 23.12 36.6006 23.04 36.6006 22.88V22.08C36.6006 21.92 36.6806 21.84 36.8406 21.84H43.1606C43.3206 21.84 43.4006 21.92 43.4006 22.08V22.88C43.4006 23.04 43.3206 23.12 43.1606 23.12H40.6806V29.76C40.6806 29.92 40.6006 30 40.4406 30H39.5606ZM46.7256 30.16C45.883 30.16 45.243 29.9467 44.8056 29.52C44.379 29.0933 44.1656 28.48 44.1656 27.68V27.28C44.1656 27.12 44.2456 27.04 44.4056 27.04H45.2856C45.4456 27.04 45.5256 27.12 45.5256 27.28V27.68C45.5256 28.0427 45.6323 28.336 45.8456 28.56C46.0696 28.7733 46.363 28.88 46.7256 28.88H48.8056C49.1256 28.88 49.3763 28.7893 49.5576 28.608C49.7496 28.416 49.8456 28.16 49.8456 27.84V27.52C49.8456 27.2 49.7496 26.9493 49.5576 26.768C49.3763 26.576 49.1256 26.48 48.8056 26.48H47.4456C47.2856 26.48 47.2056 26.4 47.2056 26.24V25.44C47.2056 25.28 47.2856 25.2 47.4456 25.2H48.6456C48.9656 25.2 49.2163 25.1093 49.3976 24.928C49.5896 24.736 49.6856 24.48 49.6856 24.16V24C49.6856 23.68 49.5896 23.4293 49.3976 23.248C49.2163 23.056 48.9656 22.96 48.6456 22.96H46.8856C46.523 22.96 46.2296 23.072 46.0056 23.296C45.7923 23.5093 45.6856 23.7973 45.6856 24.16V24.56C45.6856 24.72 45.6056 24.8 45.4456 24.8H44.5656C44.4056 24.8 44.3256 24.72 44.3256 24.56V24.16C44.3256 23.36 44.539 22.7467 44.9656 22.32C45.403 21.8933 46.043 21.68 46.8856 21.68H48.6456C50.2456 21.68 51.0456 22.4533 51.0456 24V24.16C51.0456 24.48 50.9816 24.7413 50.8536 24.944C50.7256 25.136 50.587 25.2907 50.4376 25.408C50.2563 25.536 50.059 25.6267 49.8456 25.68V25.76C50.1016 25.8133 50.3256 25.9147 50.5176 26.064C50.6883 26.192 50.843 26.3733 50.9816 26.608C51.131 26.8427 51.2056 27.1467 51.2056 27.52V27.84C51.2056 29.3867 50.4056 30.16 48.8056 30.16H46.7256ZM57.0825 28.72C57.4025 28.72 57.6532 28.6293 57.8345 28.448C58.0265 28.256 58.1225 28 58.1225 27.68V26.88C58.1225 26.56 58.0265 26.3093 57.8345 26.128C57.6532 25.936 57.4025 25.84 57.0825 25.84H54.6025V28.72H57.0825ZM53.4825 30C53.3225 30 53.2425 29.92 53.2425 29.76V22.08C53.2425 21.92 53.3225 21.84 53.4825 21.84H54.3625C54.5225 21.84 54.6025 21.92 54.6025 22.08V24.56H57.0825C58.6825 24.56 59.4825 25.3333 59.4825 26.88V27.68C59.4825 29.2267 58.6825 30 57.0825 30H53.4825ZM62.2025 29.76C62.2025 29.92 62.1225 30 61.9625 30H61.0825C60.9225 30 60.8425 29.92 60.8425 29.76V22.08C60.8425 21.92 60.9225 21.84 61.0825 21.84H61.9625C62.1225 21.84 62.2025 21.92 62.2025 22.08V29.76ZM68.9581 28.72C69.2781 28.72 69.5288 28.6293 69.7101 28.448C69.9021 28.256 69.9981 28 69.9981 27.68V27.52C69.9981 27.2 69.9021 26.9493 69.7101 26.768C69.5288 26.576 69.2781 26.48 68.9581 26.48H65.9181V28.72H68.9581ZM68.4781 25.2C68.7981 25.2 69.0488 25.1093 69.2301 24.928C69.4221 24.736 69.5181 24.48 69.5181 24.16C69.5181 23.84 69.4221 23.5893 69.2301 23.408C69.0488 23.216 68.7981 23.12 68.4781 23.12H65.9181V25.2H68.4781ZM64.7981 30C64.6381 30 64.5581 29.92 64.5581 29.76V22.08C64.5581 21.92 64.6381 21.84 64.7981 21.84H68.4781C70.0781 21.84 70.8781 22.6133 70.8781 24.16C70.8781 24.48 70.8195 24.7413 70.7021 24.944C70.5955 25.136 70.4781 25.2907 70.3501 25.408C70.2008 25.536 70.0301 25.6267 69.8381 25.68V25.76C70.1155 25.8133 70.3661 25.9147 70.5901 26.064C70.7821 26.192 70.9581 26.3733 71.1181 26.608C71.2781 26.8427 71.3581 27.1467 71.3581 27.52V27.68C71.3581 29.2267 70.5581 30 68.9581 30H64.7981ZM77.0731 28.72C77.3931 28.72 77.6438 28.6293 77.8251 28.448C78.0171 28.256 78.1131 28 78.1131 27.68V26.88C78.1131 26.56 78.0171 26.3093 77.8251 26.128C77.6438 25.936 77.3931 25.84 77.0731 25.84H74.5931V28.72H77.0731ZM73.4731 30C73.3131 30 73.2331 29.92 73.2331 29.76V22.08C73.2331 21.92 73.3131 21.84 73.4731 21.84H74.3531C74.5131 21.84 74.5931 21.92 74.5931 22.08V24.56H77.0731C78.6731 24.56 79.4731 25.3333 79.4731 26.88V27.68C79.4731 29.2267 78.6731 30 77.0731 30H73.4731ZM82.1931 29.76C82.1931 29.92 82.1131 30 81.9531 30H81.0731C80.9131 30 80.8331 29.92 80.8331 29.76V22.08C80.8331 21.92 80.9131 21.84 81.0731 21.84H81.9531C82.1131 21.84 82.1931 21.92 82.1931 22.08V29.76Z" fill="#7E7E82"/>
</svg>
